<?xml version="1.0" encoding="UTF-8" standalone="no"?>
<!-- Created with Inkscape (http://www.inkscape.org/) -->

<svg
   xmlns:dc="http://purl.org/dc/elements/1.1/"
   xmlns:cc="http://creativecommons.org/ns#"
   xmlns:rdf="http://www.w3.org/1999/02/22-rdf-syntax-ns#"
   xmlns:svg="http://www.w3.org/2000/svg"
   xmlns="http://www.w3.org/2000/svg"
   xmlns:sodipodi="http://sodipodi.sourceforge.net/DTD/sodipodi-0.dtd"
   xmlns:inkscape="http://www.inkscape.org/namespaces/inkscape"
   width="1000"
   height="329.66934"
   id="svg3415"
   version="1.1"
   inkscape:version="0.48.5 r10040"
   sodipodi:docname="New document 4">
  <defs
     id="defs3417">
    <clipPath
       clipPathUnits="userSpaceOnUse"
       id="clipPath3349">
      <path
         inkscape:connector-curvature="0"
         d="M 0,0 792,0 792,612 0,612 0,0 z"
         id="path3351" />
    </clipPath>
    <clipPath
       clipPathUnits="userSpaceOnUse"
       id="clipPath3329">
      <path
         inkscape:connector-curvature="0"
         d="M 0,0 792,0 792,612 0,612 0,0 z"
         id="path3331" />
    </clipPath>
    <clipPath
       clipPathUnits="userSpaceOnUse"
       id="clipPath3303">
      <path
         inkscape:connector-curvature="0"
         d="M 0,0 792,0 792,612 0,612 0,0 z"
         id="path3305" />
    </clipPath>
    <clipPath
       clipPathUnits="userSpaceOnUse"
       id="clipPath3283">
      <path
         inkscape:connector-curvature="0"
         d="M 0,0 792,0 792,612 0,612 0,0 z"
         id="path3285" />
    </clipPath>
    <clipPath
       clipPathUnits="userSpaceOnUse"
       id="clipPath3265">
      <path
         inkscape:connector-curvature="0"
         d="M 0,0 792,0 792,612 0,612 0,0 z"
         id="path3267" />
    </clipPath>
  </defs>
  <sodipodi:namedview
     id="base"
     pagecolor="#ffffff"
     bordercolor="#666666"
     borderopacity="1.0"
     inkscape:pageopacity="0.0"
     inkscape:pageshadow="2"
     inkscape:zoom="0.19939168"
     inkscape:cx="203.92399"
     inkscape:cy="412.09336"
     inkscape:document-units="px"
     inkscape:current-layer="layer1"
     showgrid="false"
     fit-margin-left="0.5"
     fit-margin-top="0.5"
     fit-margin-bottom="0.5"
     fit-margin-right="0.5"
     inkscape:window-width="1059"
     inkscape:window-height="1022"
     inkscape:window-x="858"
     inkscape:window-y="3"
     inkscape:window-maximized="0" />
  <metadata
     id="metadata3420">
    <rdf:RDF>
      <cc:Work
         rdf:about="">
        <dc:format>image/svg+xml</dc:format>
        <dc:type
           rdf:resource="http://purl.org/dc/dcmitype/StillImage" />
        <dc:title></dc:title>
      </cc:Work>
    </rdf:RDF>
  </metadata>
  <g
     inkscape:label="Layer 1"
     inkscape:groupmode="layer"
     id="layer1"
     transform="translate(-322.98916,-243.88862)">
    <g
       id="g3261"
       transform="matrix(4.5991307,0,0,-4.5991307,-2209.6437,775.54471)">
      <g
         id="g3263"
         clip-path="url(#clipPath3265)">
        <g
           id="g3269"
           transform="translate(536.0688,144.2843)" />
        <g
           id="g3271"
           transform="translate(554.3655,62.2033)">
          <path
             d="m 0,0 c -1.01,0.523 -1.883,0.975 -1.883,1.92 0,1.278 1.108,1.378 1.447,1.378 0.479,0 0.825,-0.116 1.06,-0.353 C 0.892,2.673 1.018,2.226 1.01,1.577 l -0.001,-0.083 1.483,0 0.004,0.079 C 2.536,2.563 2.313,3.319 1.834,3.819 1.359,4.312 0.628,4.563 -0.34,4.563 c -1.823,0 -3.001,-1.091 -3.001,-2.78 0,-1.658 1.344,-2.356 2.529,-2.971 0.994,-0.517 1.932,-1.004 1.932,-1.972 0,-1.264 -0.921,-1.529 -1.694,-1.529 -0.476,0 -1.584,0.165 -1.584,1.694 l 0,0.37 -1.415,0 -0.002,-0.079 c -0.015,-0.512 -0.05,-1.709 0.72,-2.494 0.502,-0.511 1.265,-0.766 2.268,-0.757 2.041,0 3.165,1.012 3.165,2.85 C 2.578,-1.336 1.209,-0.626 0,0"
             style="fill:#231f20;fill-opacity:1;fill-rule:nonzero;stroke:none"
             id="path3273"
             inkscape:connector-curvature="0" />
        </g>
      </g>
    </g>
    <g
       id="g3275"
       transform="matrix(4.5991307,0,0,-4.5991307,398.30074,475.2458)">
      <path
         d="m 0,0 2.616,0 0,-8.84 1.431,0 0,8.84 2.616,0 0,1.265 L 0,1.265 0,0 z"
         style="fill:#231f20;fill-opacity:1;fill-rule:nonzero;stroke:none"
         id="path3277"
         inkscape:connector-curvature="0" />
    </g>
    <g
       id="g3279"
       transform="matrix(4.5991307,0,0,-4.5991307,-2209.6437,775.54471)">
      <g
         id="g3281"
         clip-path="url(#clipPath3283)">
        <g
           id="g3287"
           transform="translate(586.0004,66.5599)">
          <path
             d="m 0,0 -3.205,-10.105 1.452,0 c 0,0 0.71,2.259 0.744,2.368 l 3.721,0 c 0.033,-0.11 0.715,-2.368 0.715,-2.368 l 1.593,0 L 1.73,0 0,0 z m 2.318,-6.471 -2.961,0 c 0.057,0.193 1.346,4.585 1.461,4.977 0.118,-0.392 1.442,-4.783 1.5,-4.977"
             style="fill:#231f20;fill-opacity:1;fill-rule:nonzero;stroke:none"
             id="path3289"
             inkscape:connector-curvature="0" />
        </g>
        <g
           id="g3291"
           transform="translate(607.1396,59.1421)">
          <path
             d="m 0,0 c -0.065,1.882 -0.472,2.37 -1.479,2.58 1.027,0.278 1.672,1.116 1.672,2.277 0,0.601 -0.178,2.561 -2.464,2.561 l -3.51,0 0,-10.105 1.431,0 0,4.571 1.405,0 c 0.327,0 1.324,0 1.419,-1.191 0,-0.001 0.062,-1.132 0.062,-1.132 0.038,-0.913 0.07,-1.7 0.332,-2.204 l 0.023,-0.044 1.483,0 -0.033,0.106 C 0.152,-1.976 0.014,-0.426 0,0 m -4.35,6.153 1.831,0 c 0.925,0 1.254,-0.741 1.254,-1.433 0,-0.725 -0.332,-1.57 -1.267,-1.57 l -1.818,0 0,3.003 z"
             style="fill:#231f20;fill-opacity:1;fill-rule:nonzero;stroke:none"
             id="path3293"
             inkscape:connector-curvature="0" />
        </g>
      </g>
    </g>
    <g
       id="g3295"
       transform="matrix(4.5991307,0,0,-4.5991307,690.013,515.90211)">
      <path
         d="m 0,0 1.431,0 0,4.544 3.469,0 0,1.265 -3.469,0 0,3.031 3.662,0 0,1.265 L 0,10.105 0,0 z"
         style="fill:#231f20;fill-opacity:1;fill-rule:nonzero;stroke:none"
         id="path3297"
         inkscape:connector-curvature="0" />
    </g>
    <g
       id="g3299"
       transform="matrix(4.5991307,0,0,-4.5991307,-2209.6437,775.54471)">
      <g
         id="g3301"
         clip-path="url(#clipPath3303)">
        <g
           id="g3307"
           transform="translate(650.871,60.1166)">
          <path
             d="m 0,0 c 0,-2.202 -0.68,-2.644 -1.777,-2.644 -1.097,0 -1.777,0.442 -1.777,2.644 l 0,6.443 -1.43,0 0,-6.388 c 0,-2.714 0.989,-3.924 3.207,-3.924 2.219,0 3.208,1.21 3.208,3.924 l 0,6.388 L 0,6.443 0,0 z"
             style="fill:#231f20;fill-opacity:1;fill-rule:nonzero;stroke:none"
             id="path3309"
             inkscape:connector-curvature="0" />
        </g>
        <g
           id="g3311"
           transform="translate(669.3323,59.1414)">
          <path
             d="m 0,0 c -0.065,1.883 -0.472,2.37 -1.48,2.581 1.028,0.278 1.673,1.116 1.673,2.277 0,0.6 -0.178,2.56 -2.464,2.56 l -3.51,0 0,-10.105 1.431,0 0,4.571 1.405,0 c 0.327,0 1.323,0 1.419,-1.191 0,0 0.062,-1.132 0.062,-1.132 0.037,-0.912 0.07,-1.7 0.332,-2.204 l 0.023,-0.044 1.484,0 -0.034,0.107 C 0.152,-1.973 0.013,-0.425 0,0 m -4.35,6.153 1.832,0 c 0.925,0 1.253,-0.771 1.253,-1.433 0,-0.724 -0.332,-1.57 -1.267,-1.57 l -1.818,0 0,3.003 z"
             style="fill:#231f20;fill-opacity:1;fill-rule:nonzero;stroke:none"
             id="path3313"
             inkscape:connector-curvature="0" />
        </g>
        <g
           id="g3315"
           transform="translate(686.2283,58.2867)">
          <path
             d="m 0,0 c -0.241,0.53 -3.762,8.273 -3.762,8.273 l -1.924,0 0,-10.105 1.292,0 0,8.384 c 0.241,-0.53 3.817,-8.384 3.817,-8.384 l 1.87,0 0,10.105 L 0,8.273 0,0 z"
             style="fill:#231f20;fill-opacity:1;fill-rule:nonzero;stroke:none"
             id="path3317"
             inkscape:connector-curvature="0" />
        </g>
      </g>
    </g>
    <path
       d="m 1005.4246,515.90075 6.5814,0 0,-46.47422 -6.5814,0 0,46.47422 z"
       style="fill:#231f20;fill-opacity:1;fill-rule:nonzero;stroke:none"
       id="path3319"
       inkscape:connector-curvature="0" />
    <g
       id="g3321"
       transform="matrix(4.5991307,0,0,-4.5991307,1060.5204,475.2458)">
      <path
         d="m 0,0 2.616,0 0,-8.84 1.431,0 0,8.84 2.615,0 0,1.265 L 0,1.265 0,0 z"
         style="fill:#231f20;fill-opacity:1;fill-rule:nonzero;stroke:none"
         id="path3323"
         inkscape:connector-curvature="0" />
    </g>
    <g
       id="g3325"
       transform="matrix(4.5991307,0,0,-4.5991307,-2209.6437,775.54471)">
      <g
         id="g3327"
         clip-path="url(#clipPath3329)">
        <g
           id="g3333"
           transform="translate(733.0285,60.1166)">
          <path
             d="m 0,0 c 0,-2.202 -0.68,-2.644 -1.777,-2.644 -1.097,0 -1.777,0.442 -1.777,2.644 l 0,6.443 -1.43,0 0,-6.388 c 0,-2.714 0.989,-3.924 3.207,-3.924 2.218,0 3.208,1.21 3.208,3.924 l 0,6.388 L 0,6.443 0,0 z"
             style="fill:#231f20;fill-opacity:1;fill-rule:nonzero;stroke:none"
             id="path3335"
             inkscape:connector-curvature="0" />
        </g>
        <g
           id="g3337"
           transform="translate(751.4907,59.1414)">
          <path
             d="m 0,0 c -0.065,1.883 -0.472,2.37 -1.48,2.581 1.028,0.278 1.673,1.116 1.673,2.277 0,0.6 -0.178,2.56 -2.463,2.56 l -3.511,0 0,-10.105 1.431,0 0,4.571 1.405,0 c 0.327,0 1.323,0 1.419,-1.191 0,0 0.062,-1.132 0.062,-1.132 0.037,-0.912 0.07,-1.7 0.332,-2.204 l 0.023,-0.044 1.484,0 -0.034,0.107 C 0.152,-1.973 0.013,-0.425 0,0 m -4.35,6.153 1.832,0 c 0.925,0 1.253,-0.771 1.253,-1.433 0,-0.724 -0.332,-1.57 -1.267,-1.57 l -1.818,0 0,3.003 z"
             style="fill:#231f20;fill-opacity:1;fill-rule:nonzero;stroke:none"
             id="path3339"
             inkscape:connector-curvature="0" />
        </g>
      </g>
    </g>
    <g
       id="g3341"
       transform="matrix(4.5991307,0,0,-4.5991307,1304.3778,510.08281)">
      <path
         d="m 0,0 0,3.278 3.58,0 0,1.266 -3.58,0 0,3.031 3.855,0 0,1.265 -5.286,0 0,-10.105 5.369,0 L 3.938,0 0,0 z"
         style="fill:#231f20;fill-opacity:1;fill-rule:nonzero;stroke:none"
         id="path3343"
         inkscape:connector-curvature="0" />
    </g>
    <g
       id="g3345"
       transform="matrix(4.5991307,0,0,-4.5991307,-2209.6437,775.54471)"
       style="fill:#b1c5e8;fill-opacity:1">
      <g
         id="g3347"
         clip-path="url(#clipPath3349)"
         style="fill:#b1c5e8;fill-opacity:1">
        <g
           id="g3353"
           transform="translate(621.5142,89.9011)"
           style="fill:#b1c5e8;fill-opacity:1">
          <path
             d="m 0,0 c -31.765,3.889 -22.256,15.989 -10.802,20.959 -0.184,-0.115 16.144,7.188 32.84,3.673 8.212,-1.729 2.486,-8.643 -2.7,-4.862 -2.053,1.297 -11.67,4.969 -22.904,0.864 C -15.989,15.773 -14.82,10.092 -6.59,8.534 1.403,7.022 8.368,7.74 13.445,4.931 c 7.53,2.645 15.701,5.467 24.15,8.078 l 0.052,0.129 c 1.035,1.176 3.163,3.511 4.439,4.563 5.772,2.962 14.994,10.405 4.306,-2.105 10.818,3.029 21.6,5.412 31.271,6.147 9.078,0.65 7.542,-7.116 -0.999,-4.766 C 71.943,18.075 56.514,14.661 42.37,10.981 32.802,-0.179 29.62,-7.708 29.877,-9.4 c 0.135,-0.901 1.162,-0.765 2.714,0 2.428,1.197 6.143,3.943 9.754,6.699 2.166,2.72 5.639,5.716 9.21,8.166 2.581,1.774 5.38,3.399 7.755,4.474 1.621,0.973 4.646,1.405 5.724,-0.864 3.995,-1.946 -0.009,-6.562 -2.716,-10.343 -7.452,-11.128 -0.09,-7.05 3.15,-3.918 2.054,1.079 11.992,11.019 16.745,17.069 1.726,2.27 3.025,0.865 2.486,-0.971 C 83.726,10.155 83.834,7.887 84.158,6.374 84.479,4.862 90.75,1.079 83.939,-6.267 82.818,-7.48 82.023,-8.516 81.507,-9.4 c -2.636,-4.48 1.773,-5.059 6.11,-4.428 1.698,0 7.951,2.702 15.451,4.428 4.4,1.013 9.233,1.695 13.825,1.297 1.342,-0.329 2.195,-0.796 2.62,-1.297 1.246,-1.475 -1.267,-3.237 -6.185,-2.593 -8.318,1.297 -16.097,-1.511 -25.39,-4.753 -14.152,-4.345 -16.473,2.397 -13.659,7.346 1.591,2.808 4.873,5.647 7.827,8.212 2.147,1.865 1.833,3.349 0.86,5.726 -0.108,0.972 -2.594,2.376 -4.101,0 -0.218,-0.217 -6.699,-7.132 -11.67,-11.453 -1.068,-0.907 -2.117,-1.736 -3.133,-2.485 -9.267,-6.841 -15.926,-7.005 -12.889,0 0.186,0.437 0.413,0.906 0.679,1.405 -0.546,-0.502 -1.08,-0.973 -1.591,-1.405 -10.061,-8.453 -13.306,-6.151 -11.753,0 0.197,0.773 0.469,1.606 0.816,2.485 -1.117,-0.907 -2.165,-1.736 -3.153,-2.485 -13.842,-10.491 -15.279,-6.249 -12.935,0 0.274,0.733 0.6,1.497 0.962,2.269 1.043,3.123 5.139,10.464 9.687,15.827 C 23.869,5.95 16.146,3.595 16.064,3.566 c 3.707,-3.585 4.396,-8.248 2.504,-13.182 -4.611,-12.015 -23.68,-26.281 -46.659,-34.247 -31.977,-7.779 -27.224,8.643 -11.667,21.392 4.094,3.584 11.374,8.155 20.134,12.855 0.864,0.466 1.859,0.99 2.751,1.457 C -11.61,-5.418 -5.801,-2.604 0,0 m -32.313,-20.605 c -11.884,-7.996 -20.744,-26.578 10.801,-17.071 35.22,13.397 39.973,35.868 25.715,36.949 -6.746,-2.639 -13.557,-5.776 -19.355,-8.888 -6.77,-3.631 -12.917,-7.547 -17.161,-10.99 M 60.486,4.998 C 58.883,5.933 56.271,5.708 53.258,3.5 51.413,2.15 49.366,-0.035 47.306,-3.105 44.054,-7.95 46.534,-14.9 60.486,4.998"
             style="fill:#b1c5e8;fill-opacity:1;fill-rule:nonzero;stroke:none"
             id="path3355"
             inkscape:connector-curvature="0" />
        </g>
      </g>
    </g>
  </g>
</svg>
